# xmcd CD database file
#
# Track frame offsets:
#	150
#	12086
#	30952
#	45090
#	60445
#	76392
#	93956
#	112112
#	126416
#	139230
#	156240
#	176085
#	187369
#	202104
#	221682
#	239041
#
# Disc length: 3387 seconds
#
# Revision: 0
# Processed by: cddbd v1.5.2PL0 Copyright (c) Steve Scherf et al.
# Submitted via: CDex 1.70beta2
#
DISCID=e40d3910
DTITLE=Boss Hoss - Internashvill - Urban Hymns
DYEAR=2005
DGENRE=Country
TTITLE0=Yee haw
TTITLE1=Hey ya!
TTITLE2=Toxic
TTITLE3=Loser
TTITLE4=Sabotage
TTITLE5=Hot in herre
TTITLE6=Seven nation army
TTITLE7=Drowned in lake daniels
TTITLE8=A little less conversation
TTITLE9=Hey joe
TTITLE10=Eyes without a face
TTITLE11=Unbelievable
TTITLE12=All the things she said
TTITLE13=Remedy
TTITLE14=Word up
TTITLE15=Like ice in the sunshine
EXTD=YEAR: 2005
EXTT0=
EXTT1=
EXTT2=
EXTT3=
EXTT4=
EXTT5=
EXTT6=
EXTT7=
EXTT8=
EXTT9=
EXTT10=
EXTT11=
EXTT12=
EXTT13=
EXTT14=
EXTT15=
PLAYORDER=
